<?xml version="1.0" encoding="UTF-8" standalone="no"?>
<!DOCTYPE svg PUBLIC "-//W3C//DTD SVG 1.1//EN" "http://www.w3.org/Graphics/SVG/1.1/DTD/svg11.dtd">
<svg xmlns="http://www.w3.org/2000/svg" version="1.1" viewBox="0.00 0.00 256.00 256.00" width="128" height="128">
<path stroke="#f7ad8c" stroke-width="2.00" fill="none" stroke-linecap="butt" vector-effect="non-scaling-stroke" d="
  M 165.20 60.55
  Q 164.06 59.73 160.50 59.71
  Q 123.54 59.49 93.29 59.59
  C 89.75 59.60 89.11 63.03 88.96 66.02
  Q 88.29 79.52 88.49 96.50
  C 88.79 122.38 88.22 152.84 88.75 174.51
  Q 88.86 179.09 89.19 181.80
  A 2.75 2.75 0.0 0 0 91.66 184.22
  Q 93.52 184.40 99.07 184.50
  Q 117.88 184.84 156.75 184.47
  Q 160.18 184.43 165.07 183.90
  C 166.95 183.70 168.02 182.78 168.21 180.75
  Q 168.48 177.79 168.04 173.44
  Q 167.73 170.41 164.14 170.16
  Q 158.93 169.80 154.75 169.80
  Q 134.30 169.77 114.25 169.92
  Q 108.32 169.96 106.47 169.57
  Q 104.39 169.14 104.15 167.07
  C 103.46 161.13 103.86 151.09 103.94 133.52
  Q 103.95 131.51 104.42 130.27
  A 1.59 1.58 -79.5 0 1 105.90 129.25
  Q 131.16 129.20 150.25 129.22
  Q 156.68 129.23 162.42 128.05
  C 166.00 127.31 166.25 123.03 165.83 119.96
  Q 165.46 117.33 164.78 116.68
  A 2.66 2.60 78.4 0 0 164.01 116.16
  Q 161.45 114.97 158.99 114.91
  Q 140.46 114.42 120.36 114.94
  C 115.88 115.06 110.33 114.77 106.85 114.63
  A 2.41 2.40 81.4 0 1 104.67 113.01
  Q 103.89 110.78 103.86 107.93
  Q 103.63 85.70 104.53 76.27
  Q 104.74 73.97 106.96 73.82
  C 111.41 73.52 115.83 74.08 121.00 74.09
  Q 135.13 74.11 149.25 74.06
  Q 159.37 74.03 163.71 73.40
  C 167.76 72.81 167.42 69.04 167.28 65.55
  Q 167.18 62.86 165.93 61.26
  A 3.40 3.35 -0.4 0 0 165.20 60.55"
/>
<path fill="#ee5a18" d="
  M 213.74 0.00
  Q 221.11 0.31 222.90 1.32
  C 227.31 3.82 233.73 7.13 237.90 10.51
  C 247.98 18.71 255.64 30.02 256.00 43.38
  L 256.00 214.66
  Q 255.33 222.88 250.70 231.21
  Q 241.38 247.93 224.03 253.83
  C 218.75 255.62 213.07 255.79 207.35 256.00
  L 42.94 256.00
  Q 36.77 255.71 34.21 254.88
  Q 31.86 254.12 25.34 250.66
  C 22.15 248.98 19.80 246.75 16.34 244.02
  A 25.23 24.96 -0.3 0 1 12.59 240.35
  Q 7.54 234.23 6.48 232.52
  Q 3.81 228.21 1.21 221.67
  A 5.79 5.58 -60.4 0 1 0.86 220.30
  L 0.00 213.05
  L 0.00 50.29
  Q 0.31 47.15 0.53 44.02
  C 1.67 27.40 13.07 12.75 27.37 5.13
  Q 31.63 2.86 36.05 1.08
  A 8.89 8.73 29.6 0 1 38.23 0.50
  L 42.13 0.00
  L 213.74 0.00
  Z
  M 165.20 60.55
  Q 164.06 59.73 160.50 59.71
  Q 123.54 59.49 93.29 59.59
  C 89.75 59.60 89.11 63.03 88.96 66.02
  Q 88.29 79.52 88.49 96.50
  C 88.79 122.38 88.22 152.84 88.75 174.51
  Q 88.86 179.09 89.19 181.80
  A 2.75 2.75 0.0 0 0 91.66 184.22
  Q 93.52 184.40 99.07 184.50
  Q 117.88 184.84 156.75 184.47
  Q 160.18 184.43 165.07 183.90
  C 166.95 183.70 168.02 182.78 168.21 180.75
  Q 168.48 177.79 168.04 173.44
  Q 167.73 170.41 164.14 170.16
  Q 158.93 169.80 154.75 169.80
  Q 134.30 169.77 114.25 169.92
  Q 108.32 169.96 106.47 169.57
  Q 104.39 169.14 104.15 167.07
  C 103.46 161.13 103.86 151.09 103.94 133.52
  Q 103.95 131.51 104.42 130.27
  A 1.59 1.58 -79.5 0 1 105.90 129.25
  Q 131.16 129.20 150.25 129.22
  Q 156.68 129.23 162.42 128.05
  C 166.00 127.31 166.25 123.03 165.83 119.96
  Q 165.46 117.33 164.78 116.68
  A 2.66 2.60 78.4 0 0 164.01 116.16
  Q 161.45 114.97 158.99 114.91
  Q 140.46 114.42 120.36 114.94
  C 115.88 115.06 110.33 114.77 106.85 114.63
  A 2.41 2.40 81.4 0 1 104.67 113.01
  Q 103.89 110.78 103.86 107.93
  Q 103.63 85.70 104.53 76.27
  Q 104.74 73.97 106.96 73.82
  C 111.41 73.52 115.83 74.08 121.00 74.09
  Q 135.13 74.11 149.25 74.06
  Q 159.37 74.03 163.71 73.40
  C 167.76 72.81 167.42 69.04 167.28 65.55
  Q 167.18 62.86 165.93 61.26
  A 3.40 3.35 -0.4 0 0 165.20 60.55
  Z"
/>
<path fill="#ffffff" d="
  M 165.93 61.26
  Q 167.18 62.86 167.28 65.55
  C 167.42 69.04 167.76 72.81 163.71 73.40
  Q 159.37 74.03 149.25 74.06
  Q 135.13 74.11 121.00 74.09
  C 115.83 74.08 111.41 73.52 106.96 73.82
  Q 104.74 73.97 104.53 76.27
  Q 103.63 85.70 103.86 107.93
  Q 103.89 110.78 104.67 113.01
  A 2.41 2.40 81.4 0 0 106.85 114.63
  C 110.33 114.77 115.88 115.06 120.36 114.94
  Q 140.46 114.42 158.99 114.91
  Q 161.45 114.97 164.01 116.16
  A 2.66 2.60 78.4 0 1 164.78 116.68
  Q 165.46 117.33 165.83 119.96
  C 166.25 123.03 166.00 127.31 162.42 128.05
  Q 156.68 129.23 150.25 129.22
  Q 131.16 129.20 105.90 129.25
  A 1.59 1.58 -79.5 0 0 104.42 130.27
  Q 103.95 131.51 103.94 133.52
  C 103.86 151.09 103.46 161.13 104.15 167.07
  Q 104.39 169.14 106.47 169.57
  Q 108.32 169.96 114.25 169.92
  Q 134.30 169.77 154.75 169.80
  Q 158.93 169.80 164.14 170.16
  Q 167.73 170.41 168.04 173.44
  Q 168.48 177.79 168.21 180.75
  C 168.02 182.78 166.95 183.70 165.07 183.90
  Q 160.18 184.43 156.75 184.47
  Q 117.88 184.84 99.07 184.50
  Q 93.52 184.40 91.66 184.22
  A 2.75 2.75 0.0 0 1 89.19 181.80
  Q 88.86 179.09 88.75 174.51
  C 88.22 152.84 88.79 122.38 88.49 96.50
  Q 88.29 79.52 88.96 66.02
  C 89.11 63.03 89.75 59.60 93.29 59.59
  Q 123.54 59.49 160.50 59.71
  Q 164.06 59.73 165.20 60.55
  A 3.40 3.35 -0.4 0 1 165.93 61.26
  Z"
/>
</svg>